<svg width="46" height="46" viewBox="0 0 46 46" fill="none" xmlns="http://www.w3.org/2000/svg">
<path d="M46 30.9062C46 35.2727 43.5757 38.8125 38.8125 38.8125H7.1875C2.42434 38.8125 0 35.2727 0 30.9062V15.0938C0 10.7273 2.42434 7.1875 7.1875 7.1875H38.8125C43.5757 7.1875 46 10.7273 46 15.0938V30.9062Z" fill="#128807"/>
<path d="M41.0694 23.5678L23.1078 36.189L5.14551 23.5678L23.1078 10.9465L41.0694 23.5678Z" fill="#F9CB38"/>
<path fill-rule="evenodd" clip-rule="evenodd" d="M30.1947 25.7657C29.3767 28.5451 26.8173 30.6611 23.9193 30.9486C20.0473 31.336 16.6599 28.875 15.8362 25.0707C15.5924 23.9527 15.6234 22.7923 15.9268 21.689C16.0396 21.5668 16.1956 21.5373 16.3508 21.5157C17.4832 21.3575 18.6281 21.3077 19.7699 21.367C20.9882 21.436 22.1964 21.6049 23.3708 21.9369C24.5762 22.2783 25.7434 22.724 26.8453 23.3162C27.6747 23.7564 28.4667 24.2636 29.2136 24.8328C29.4666 25.029 29.7246 25.2216 29.9675 25.4308C30.0761 25.5242 30.1616 25.6248 30.1947 25.7657Z" fill="#002776"/>
<path fill-rule="evenodd" clip-rule="evenodd" d="M16.3328 20.5641C17.2607 18.4905 18.8254 17.1098 20.9882 16.4615C25.3438 15.1555 29.8123 18.0341 30.4599 22.5234C30.5605 23.217 30.5648 23.9128 30.4584 24.6078C30.3484 24.6488 30.2665 24.5906 30.191 24.528C29.4017 23.883 28.5594 23.3055 27.6733 22.8016C26.9909 22.4144 26.2819 22.0762 25.5515 21.7896C25.4221 21.7386 25.2597 21.712 25.2151 21.5388C25.2619 21.4554 25.3208 21.3828 25.3912 21.3152C25.4164 21.2894 25.453 21.2642 25.4193 21.2211C25.4078 21.2074 25.384 21.2074 25.3639 21.2096C25.31 21.2153 25.3172 21.2527 25.3194 21.2922C25.3237 21.4209 25.2489 21.5035 25.1504 21.5697C24.9758 21.6092 24.8083 21.5567 24.6667 21.4813C24.2614 21.2685 23.8129 21.1959 23.3838 21.0773C22.7146 20.8955 22.0275 20.7927 21.3418 20.6856C20.7945 20.5984 20.2437 20.5356 19.6908 20.4973C19.1877 20.4621 18.6752 20.4671 18.1685 20.5016C17.6158 20.5404 17.0616 20.5792 16.5118 20.6454C16.4773 20.6507 16.442 20.6458 16.4102 20.6314C16.3784 20.617 16.3515 20.5936 16.3328 20.5641Z" fill="#002776"/>
<path fill-rule="evenodd" clip-rule="evenodd" d="M25.2209 21.4941C25.218 21.5818 25.2964 21.5703 25.3438 21.589C27.1999 22.3109 28.926 23.3305 30.4541 24.6077C30.4103 25.0021 30.323 25.3904 30.1939 25.7656C29.2948 25.0196 28.3741 24.3087 27.3556 23.728C24.1363 21.8944 20.6892 21.1678 17.0042 21.5573C16.6448 21.594 16.2854 21.6429 15.926 21.6867C16.0187 21.2979 16.1366 20.9162 16.33 20.5626C19.0202 20.1996 21.6638 20.4059 24.2578 21.2088C24.5798 21.3087 24.8867 21.4697 25.2302 21.4998L25.2209 21.4919" fill="#FEFEFE"/>
<path fill-rule="evenodd" clip-rule="evenodd" d="M28.5703 26.1266C28.3539 26.1036 28.5889 26.3688 28.3704 26.3631C28.18 26.3602 28.1699 26.2078 28.0765 26.123C28.1484 26.0483 28.2756 26.0332 28.3158 25.9167C28.3431 26.0397 28.4589 26.0655 28.5703 26.1266Z" fill="#D9DFEA"/>
<path fill-rule="evenodd" clip-rule="evenodd" d="M20.4082 27.4561C20.2048 27.4798 20.3751 27.7012 20.2048 27.7048C20.033 27.7084 19.9446 27.5812 19.9101 27.4497C19.8978 27.4123 20.0632 27.3289 20.1444 27.2671C20.1544 27.3972 20.2896 27.3914 20.4082 27.4561Z" fill="#E9ECF3"/>
<path fill-rule="evenodd" clip-rule="evenodd" d="M23.1006 27.0559C22.8181 27.2384 23.046 26.8259 22.8799 26.8661C22.9339 26.7799 23.0862 26.8 23.0963 26.6677C23.1682 26.7425 23.2293 26.8287 23.3435 26.8445C23.1804 26.8223 23.3579 27.1845 23.1006 27.0559Z" fill="#EDEFF5"/>
<path fill-rule="evenodd" clip-rule="evenodd" d="M17.2644 22.2129C17.1968 22.3415 17.1458 22.4853 16.9409 22.399C16.836 22.3552 16.9481 22.2114 16.8223 22.1978L17.0552 21.9929L17.1055 22.0928C17.1242 22.1784 17.2945 22.0648 17.2644 22.2129Z" fill="#F0F2F6"/>
<path fill-rule="evenodd" clip-rule="evenodd" d="M17.9162 25.3359C17.8091 25.3696 17.886 25.6514 17.656 25.5285C17.633 25.517 17.5324 25.5723 17.5511 25.54C17.6115 25.4221 17.4764 25.3646 17.4972 25.2704C17.623 25.3251 17.6158 25.0951 17.7445 25.1569C17.7538 25.1641 17.7538 25.1928 17.7603 25.2115C17.7739 25.3006 17.9479 25.1892 17.9162 25.3359Z" fill="#ECEFF4"/>
<path fill-rule="evenodd" clip-rule="evenodd" d="M16.7857 26.1682C16.565 26.2451 16.7296 25.9785 16.6031 25.9806C16.662 25.931 16.7282 25.8383 16.7871 25.8419C16.8575 25.8455 16.9222 25.9325 16.9869 25.9821C16.8906 26.0144 16.9919 26.2753 16.7857 26.1682Z" fill="#D9DFEA"/>
<path fill-rule="evenodd" clip-rule="evenodd" d="M25.3144 28.7118C25.0808 28.8182 25.3079 28.5041 25.1519 28.545C25.1361 28.425 25.3309 28.4976 25.3064 28.3711L25.517 28.54C25.4315 28.5788 25.517 28.8232 25.3144 28.7118Z" fill="#D8DEEA"/>
<path fill-rule="evenodd" clip-rule="evenodd" d="M26.8093 28.5387C26.616 28.6192 26.7346 28.359 26.6304 28.3331C26.7008 28.2879 26.7748 28.2397 26.8438 28.193C26.8496 28.2994 26.9955 28.2605 27.0113 28.3547C26.9028 28.3612 27.0156 28.5955 26.8093 28.5387ZM28.1534 27.5713C27.9335 27.6827 28.0959 27.3901 27.9701 27.4024C27.9953 27.3089 28.1397 27.3441 28.1484 27.2363L28.3547 27.3909C28.2289 27.3873 28.3834 27.6956 28.1534 27.5713Z" fill="#DCE1EC"/>
<path fill-rule="evenodd" clip-rule="evenodd" d="M19.2502 26.2293C19.0202 26.3594 19.1705 26.0683 19.0641 26.0626C19.0749 25.9555 19.2373 26.0015 19.2445 25.8879C19.2661 25.9929 19.4055 25.9627 19.4357 26.0568C19.2984 26.0367 19.4939 26.3666 19.2502 26.2293Z" fill="#D4DAE7"/>
<path fill-rule="evenodd" clip-rule="evenodd" d="M20.1825 24.0458C20.0524 24.0372 20.2191 23.8323 20.0596 23.8453C20.0869 23.7303 20.2098 23.754 20.2774 23.6943C20.3119 23.7669 20.4096 23.7835 20.4146 23.8877C20.4261 24.0781 20.2572 23.9797 20.1825 24.0458Z" fill="#F2F4F7"/>
<path fill-rule="evenodd" clip-rule="evenodd" d="M23.9703 25.5639C23.7712 25.6781 23.8761 25.423 23.7841 25.395L23.9703 25.2375C23.9746 25.3439 24.178 25.3202 24.1205 25.4021C24.086 25.451 24.1974 25.6746 23.9703 25.5639Z" fill="#E6E9F1"/>
<path fill-rule="evenodd" clip-rule="evenodd" d="M23.0791 24.9234C22.8519 24.9464 23.0862 24.7401 22.9389 24.7452C22.9964 24.6913 23.0517 24.5993 23.1164 24.5935C23.1725 24.5878 23.2372 24.6791 23.2983 24.7294C23.2185 24.8063 23.2307 25.0046 23.0791 24.9234Z" fill="#EAEDF3"/>
<path fill-rule="evenodd" clip-rule="evenodd" d="M28.5933 26.6008C28.64 26.7245 28.732 26.741 28.8039 26.7848C28.7306 26.8675 28.7018 26.994 28.5494 26.994C28.3935 26.9954 28.4991 26.8768 28.4639 26.8215C28.3769 26.6835 28.6982 26.7999 28.5933 26.6008Z" fill="#E4E8F0"/>
<path fill-rule="evenodd" clip-rule="evenodd" d="M26.966 29.1051C26.9114 29.1864 26.9488 29.264 26.8036 29.2669C26.6376 29.2697 26.6908 29.1483 26.6836 29.1109C26.6699 29.0491 26.7648 28.9901 26.8194 29.0024C26.8669 29.011 26.9589 29.0376 26.966 29.1051Z" fill="#CED5E4"/>
<path fill-rule="evenodd" clip-rule="evenodd" d="M19.2007 26.8021C19.0821 26.8157 19.1806 26.971 19.0303 26.966C18.8931 26.9616 18.9132 26.8689 18.8981 26.8129C18.8744 26.7345 18.9901 26.7367 19.016 26.6777C19.0706 26.7158 19.1259 26.7539 19.2007 26.8021Z" fill="#DAE0EB"/>
<path fill-rule="evenodd" clip-rule="evenodd" d="M26.644 27.6229C26.6948 27.5855 26.7468 27.5491 26.8 27.5137C26.8043 27.5935 26.9761 27.5475 26.9186 27.6495C26.8949 27.6905 26.9531 27.8026 26.8043 27.7925C26.6706 27.7832 26.7023 27.6898 26.644 27.6229Z" fill="#D8DEE9"/>
<path fill-rule="evenodd" clip-rule="evenodd" d="M26.0978 27.8695C26.0719 28.0111 25.9914 28.0341 25.903 28.0507C25.7528 28.0758 25.8657 27.963 25.8412 27.9199C25.778 27.812 25.9375 27.8329 25.9562 27.7625C25.9979 27.8171 26.0935 27.8156 26.0978 27.8695Z" fill="#CBD2E3"/>
<path fill-rule="evenodd" clip-rule="evenodd" d="M25.2568 23.2083C25.2065 23.232 25.2734 23.3521 25.1655 23.3176C25.0836 23.2895 24.983 23.2507 24.9902 23.1501C24.993 23.1113 25.0908 23.0789 25.1454 23.0452C25.1548 23.1178 25.31 23.094 25.2568 23.2083Z" fill="#D1D8E6"/>
<path fill-rule="evenodd" clip-rule="evenodd" d="M29.3242 26.3609C29.1891 26.414 29.2502 26.3026 29.2265 26.2703C29.1359 26.1474 29.3149 26.1654 29.3242 26.092C29.3796 26.1287 29.4874 26.1704 29.4831 26.202C29.4799 26.2431 29.4622 26.2817 29.4331 26.3108C29.4039 26.34 29.3653 26.3577 29.3242 26.3609Z" fill="#DADFEA"/>
<path fill-rule="evenodd" clip-rule="evenodd" d="M22.3746 25.2642C22.3746 25.3475 22.5428 25.3145 22.4861 25.4187C22.4631 25.4611 22.5119 25.5747 22.3955 25.5509C22.3071 25.533 22.218 25.4812 22.2151 25.3935C22.2151 25.3526 22.3171 25.3087 22.3746 25.2642Z" fill="#CAD2E2"/>
<path fill-rule="evenodd" clip-rule="evenodd" d="M24.6746 27.8646C24.6085 27.8336 24.6056 27.7467 24.6099 27.705C24.6171 27.6496 24.6912 27.5749 24.7544 27.6051C24.7932 27.6238 24.9032 27.613 24.8766 27.7136C24.8522 27.8099 24.7559 27.8236 24.6746 27.8646Z" fill="#D0D7E5"/>
<path fill-rule="evenodd" clip-rule="evenodd" d="M27.4562 27.7379C27.4591 27.7372 27.5094 27.6675 27.5662 27.666C27.6072 27.6646 27.6489 27.7494 27.6927 27.7968C27.6338 27.8134 27.6841 27.9219 27.5676 27.9205C27.4627 27.9183 27.4627 27.8709 27.4562 27.7379Z" fill="#EFF2F6"/>
<path fill-rule="evenodd" clip-rule="evenodd" d="M22.8318 25.9181C22.8124 25.9958 22.8124 26.0439 22.7434 26.0425C22.6729 26.041 22.6384 26.0152 22.6399 25.9433C22.6399 25.8865 22.6772 25.847 22.7197 25.8506C22.7685 25.8542 22.8382 25.8678 22.8318 25.9181Z" fill="#CCD4E3"/>
<path fill-rule="evenodd" clip-rule="evenodd" d="M18.4244 24.7998C18.4589 24.8372 18.4984 24.8666 18.5135 24.9047C18.5265 24.9364 18.5063 24.9845 18.4618 24.9896C18.4122 24.9939 18.359 24.9924 18.3432 24.9306C18.3288 24.8702 18.3813 24.8487 18.4244 24.7998Z" fill="#E0E5EE"/>
<path fill-rule="evenodd" clip-rule="evenodd" d="M17.9162 25.336C17.8968 25.2533 17.7689 25.3058 17.7603 25.2109C17.7876 25.2828 18.001 25.1225 17.9162 25.336Z" fill="#7085B1"/>
<path fill-rule="evenodd" clip-rule="evenodd" d="M17.2644 22.213C17.2486 22.1246 17.1127 22.1944 17.1055 22.093C17.1436 22.1534 17.3362 22.0104 17.2644 22.213Z" fill="#5C75A7"/>
<path fill-rule="evenodd" clip-rule="evenodd" d="M25.2353 21.502C25.2489 21.4474 25.2928 21.3583 25.2755 21.3417C25.0412 21.1333 25.3539 21.0981 25.4006 21.0557C25.4861 20.973 25.4724 21.3216 25.6981 21.101C25.5767 21.3705 25.4142 21.4481 25.2274 21.4941L25.2353 21.502Z" fill="#E7EAF2"/>
<path fill-rule="evenodd" clip-rule="evenodd" d="M18.3072 21.2787C18.0787 21.2564 18.2821 20.9588 18.2325 20.7863C18.1707 20.5635 18.3331 20.5664 18.4912 20.5657C18.7363 20.5643 18.8751 20.6678 18.8751 20.9265C18.8743 21.1809 18.7565 21.2816 18.3072 21.2787Z" fill="#15A24A"/>
<path fill-rule="evenodd" clip-rule="evenodd" d="M27.0401 22.7146C26.9898 22.8684 26.8036 22.9647 26.772 23.1545C26.7691 23.1796 26.6972 23.1746 26.6836 23.1013C26.6261 22.7577 26.6232 22.7585 26.3695 22.9425C26.3494 22.9575 26.3141 22.9712 26.2947 22.9647C26.2574 22.9482 26.2423 22.9108 26.2646 22.8684C26.3486 22.7045 26.4277 22.5364 26.5219 22.3775C26.5851 22.2726 26.662 22.3603 26.7238 22.3905C26.8597 22.4573 27.0271 22.4954 27.0401 22.7146Z" fill="#13A248"/>
<path fill-rule="evenodd" clip-rule="evenodd" d="M27.6833 23.2738C27.5511 23.327 27.4871 23.2271 27.4023 23.1912C27.3448 23.1667 27.2909 23.1437 27.2521 23.2077C27.2097 23.2753 27.2521 23.3141 27.3103 23.3443C27.3549 23.3666 27.4023 23.3838 27.4354 23.419C27.4936 23.4801 27.6762 23.4636 27.6021 23.5937C27.5439 23.6972 27.4462 23.5764 27.3815 23.5383C27.2701 23.4701 27.0494 23.4327 27.0731 23.3141C27.1098 23.1236 27.2183 22.9166 27.3628 22.7858C27.4785 22.6809 27.6064 22.8792 27.7365 22.9288C27.7926 22.9497 27.8882 22.9684 27.8717 23.0568C27.8558 23.1481 27.7883 23.0949 27.7365 23.0827C27.6151 23.0546 27.4972 22.8491 27.4016 22.9914C27.3441 23.0762 27.5806 23.1114 27.6553 23.2048C27.6668 23.2185 27.6697 23.2372 27.6833 23.2738ZM29.2322 24.2901C29.2538 24.4583 29.1855 24.5726 29.0094 24.5439C28.8269 24.5137 28.6882 24.4023 28.6565 24.2025C28.6537 24.1823 28.6781 24.1414 28.6982 24.1356C28.7098 24.1318 28.7221 24.1306 28.7342 24.1321C28.7463 24.1335 28.7579 24.1376 28.7683 24.1441C28.7786 24.1505 28.7874 24.1591 28.7941 24.1694C28.8007 24.1796 28.805 24.1911 28.8067 24.2032C28.8297 24.3405 28.9016 24.4016 29.0461 24.4044C29.0741 24.1795 28.668 24.0767 28.9016 23.8431C29.0188 23.7259 29.1618 23.823 29.2639 23.9171C29.358 24.0027 29.473 24.0968 29.3012 24.219C29.2768 24.2061 29.2437 24.1852 29.2258 24.1996C29.1891 24.224 29.2251 24.2592 29.2322 24.2901Z" fill="#11A147"/>
<path fill-rule="evenodd" clip-rule="evenodd" d="M24.2678 22.1498C24.1823 22.1016 24.1866 22.0556 24.2003 22.0053C24.2276 21.8982 24.1722 21.8422 24.0745 21.812C23.9767 21.7804 23.9013 21.7847 23.8747 21.9069C23.8653 21.9615 23.8366 21.9996 23.7769 21.9795C23.7079 21.9543 23.7424 21.8982 23.7554 21.8573C23.7827 21.7631 23.8071 21.6682 23.8502 21.5784C23.889 21.4885 23.8617 21.324 24.0033 21.3347C24.1535 21.3455 24.316 21.3815 24.4303 21.5058C24.4813 21.5604 24.5021 21.6546 24.4605 21.6955C24.339 21.8206 24.349 21.9974 24.2678 22.1498Z" fill="#0FA046"/>
<path fill-rule="evenodd" clip-rule="evenodd" d="M19.8325 21.2348C19.6003 21.3225 19.417 21.2715 19.2381 21.275C19.1568 21.2772 19.1497 21.2161 19.1497 21.1543C19.1544 21.0858 19.1564 21.0173 19.1554 20.9487C19.164 20.57 19.2984 20.4729 19.6708 20.5786C19.7124 20.5901 19.752 20.5973 19.7548 20.644C19.7548 20.7087 19.7081 20.7202 19.6506 20.7187C19.6425 20.7168 19.6334 20.7161 19.6233 20.7166C19.5119 20.7439 19.3121 20.6181 19.3085 20.7849C19.3042 20.9128 19.522 20.8222 19.6334 20.8654C19.6482 20.8725 19.6674 20.8855 19.6909 20.9042C19.6204 21.0314 19.5033 20.9602 19.4127 20.9753C19.3588 20.984 19.2884 20.9602 19.2805 21.0479C19.2704 21.1514 19.3423 21.1464 19.4127 21.1536C19.5328 21.168 19.6628 21.1227 19.8325 21.2348Z" fill="#0B9F43"/>
<path fill-rule="evenodd" clip-rule="evenodd" d="M17.9241 21.2895C17.7991 21.2621 17.8163 21.1903 17.7948 21.14C17.7574 21.0472 17.6834 21.0472 17.6021 21.0537C17.5094 21.0623 17.4591 21.0983 17.467 21.201C17.4728 21.2514 17.4929 21.3326 17.3995 21.3211C17.319 21.311 17.342 21.2327 17.3376 21.1795C17.3305 21.0925 17.3218 21.0034 17.3305 20.9171C17.342 20.8208 17.25 20.6735 17.3887 20.639C17.5317 20.6016 17.697 20.575 17.8458 20.6462C17.9105 20.6771 17.9615 20.7525 17.9378 20.8136C17.8832 20.9675 17.9263 21.1234 17.9241 21.2895Z" fill="#079D3F"/>
<path fill-rule="evenodd" clip-rule="evenodd" d="M16.4069 21.0449C16.4299 20.8501 16.5154 20.692 16.7289 20.6992C16.9337 20.7057 17.043 20.848 17.043 21.0528C17.043 21.2562 16.9481 21.3964 16.7317 21.395C16.5118 21.3935 16.437 21.234 16.4069 21.0449Z" fill="#15A24A"/>
<path fill-rule="evenodd" clip-rule="evenodd" d="M30.0897 24.6963C30.0696 24.8896 29.974 25.0355 29.7533 25.0549C29.5499 25.0715 29.4421 24.955 29.4263 24.7638C29.4083 24.5705 29.5981 24.3858 29.7914 24.3872C29.961 24.3887 30.0854 24.5116 30.0897 24.6963Z" fill="#11A147"/>
<path fill-rule="evenodd" clip-rule="evenodd" d="M26.0547 22.4466C26.2171 22.5774 26.0202 22.6637 26.013 22.7736C25.8779 22.7111 25.709 22.7363 25.5997 22.6177C25.4833 22.4912 25.5048 22.3481 25.581 22.2087C25.6651 22.0614 25.7945 21.9981 25.9533 22.0542C26.0985 22.1059 26.2071 22.2037 26.1366 22.3877C26.0252 22.4078 25.9339 22.2612 25.7772 22.3596C25.8815 22.4078 26.0065 22.341 26.0547 22.4466Z" fill="#0C9F43"/>
<path fill-rule="evenodd" clip-rule="evenodd" d="M22.1446 20.966C22.0498 21.0774 21.98 21.0342 21.9146 21.0357C21.8514 21.0357 21.7838 20.9832 21.7055 21.0486C21.7759 21.1636 21.9463 21.0896 22.0124 21.2039C22.003 21.2204 21.9987 21.2427 21.9865 21.2542C21.8916 21.3289 21.74 21.1478 21.681 21.2973C21.6271 21.426 21.7687 21.3814 21.8298 21.403C21.8988 21.4303 21.9844 21.4202 22.0677 21.5136C21.8744 21.5985 21.6437 21.5589 21.5639 21.4655C21.4381 21.3181 21.5265 21.0565 21.6221 20.9257C21.7349 20.7712 21.9412 20.9221 22.1446 20.966Z" fill="#19A44D"/>
<path fill-rule="evenodd" clip-rule="evenodd" d="M23.3701 21.5913C23.207 21.574 23.0215 21.459 22.9748 21.7278C22.9734 21.7364 22.9166 21.7487 22.8994 21.7372C22.8799 21.7264 22.8692 21.6861 22.8728 21.6631C22.9152 21.4928 22.9367 21.3102 23.0122 21.1571C23.0999 20.9846 23.2487 21.1305 23.3716 21.1471C23.5182 21.1665 23.5994 21.2556 23.5836 21.4101C23.5692 21.5431 23.4686 21.579 23.3701 21.5913Z" fill="#0D9F44"/>
<path fill-rule="evenodd" clip-rule="evenodd" d="M25.3143 22.0031C25.2985 22.2194 25.1921 22.3689 24.9758 22.3754C24.7824 22.3826 24.6739 22.2467 24.6782 22.0541C24.684 21.8457 24.7853 21.6947 25.0103 21.6883C25.2166 21.6811 25.2964 21.8198 25.3143 22.0031Z" fill="#0FA046"/>
<path fill-rule="evenodd" clip-rule="evenodd" d="M20.4692 21.2225C20.4455 21.2736 20.4261 21.3462 20.3578 21.3296C20.2392 21.3016 20.2924 21.1873 20.2637 21.1126C20.176 21.027 20.199 21.1449 20.1717 21.1665C20.1616 21.2197 20.186 21.3009 20.1142 21.3117C20.0258 21.3224 20.0466 21.2376 20.0488 21.1873C20.0559 21.0824 20.0574 20.9724 20.0861 20.8718C20.1113 20.7855 20.02 20.6267 20.1918 20.6252C20.3434 20.6245 20.3104 20.7791 20.3298 20.8718C20.3499 20.9782 20.3607 21.0234 20.4477 20.9178C20.5375 20.8941 20.5562 20.9595 20.577 21.0227C20.5885 21.1147 20.5476 21.1787 20.4692 21.2225Z" fill="#0EA044"/>
<path fill-rule="evenodd" clip-rule="evenodd" d="M28.1246 23.8624C28.1778 23.8624 28.2317 23.9328 28.2835 23.8725C28.323 23.8272 28.2878 23.7826 28.2526 23.746C28.2257 23.7186 28.1999 23.6904 28.1749 23.6611C28.1016 23.5727 27.9989 23.4879 28.1002 23.36C28.1922 23.2428 28.2993 23.2716 28.4057 23.3456C28.4251 23.383 28.4186 23.4189 28.3985 23.4527C28.3201 23.5756 28.466 23.6504 28.4632 23.7553C28.4855 23.8538 28.4998 23.953 28.3913 24.0097C28.2562 24.0816 28.1519 24.0155 28.0528 23.9292C28.042 23.8725 28.0628 23.8444 28.1246 23.8624Z" fill="#10A146"/>
<path fill-rule="evenodd" clip-rule="evenodd" d="M26.0547 22.4465C25.9993 22.4854 25.8879 22.3596 25.8915 22.4544C25.8987 22.6226 25.8146 22.6075 25.7362 22.5579C25.6306 22.4925 25.6248 22.3804 25.6917 22.2769C25.7564 22.1756 25.8477 22.1166 25.9583 22.1993C26.0259 22.2489 26.0769 22.3236 26.1352 22.3876L26.0547 22.4465Z" fill="#ECF7F0"/>
<path fill-rule="evenodd" clip-rule="evenodd" d="M20.5167 21.0523C20.4959 21.0078 20.4729 20.9643 20.4477 20.9222C20.4728 20.8582 20.4958 20.7935 20.526 20.7317C20.5533 20.6735 20.6008 20.6412 20.6676 20.6627C20.7424 20.6879 20.7366 20.7454 20.7323 20.8058C20.7165 20.9816 20.7019 21.1575 20.6885 21.3333C20.5835 21.4002 20.5569 21.3391 20.5397 21.2485C20.5268 21.1831 20.5605 21.1127 20.5167 21.0523Z" fill="#17A34C"/>
<path fill-rule="evenodd" clip-rule="evenodd" d="M28.4654 23.7546C28.4007 23.6885 28.3317 23.626 28.2713 23.5555C28.2009 23.4722 28.2282 23.4211 28.3331 23.4075C28.4848 23.4413 28.5775 23.5146 28.5329 23.6885C28.5118 23.7105 28.4893 23.7326 28.4654 23.7546Z" fill="#D7EFE0"/>
<path fill-rule="evenodd" clip-rule="evenodd" d="M28.5329 23.6885C28.4632 23.598 28.4445 23.4686 28.3331 23.4075L28.4078 23.345C28.5286 23.4305 28.7492 23.4794 28.5329 23.6885Z" fill="#2BAB5B"/>
<path fill-rule="evenodd" clip-rule="evenodd" d="M29.2323 24.2901C29.2229 24.2844 29.2107 24.2815 29.2064 24.2736C29.1489 24.1672 28.9584 24.0716 29.0231 23.9775C29.1043 23.8639 29.1892 23.9983 29.2337 24.0953C29.2538 24.1363 29.2783 24.1765 29.3013 24.219C29.2773 24.2429 29.2543 24.2666 29.2323 24.2901Z" fill="#E6F5EC"/>
<path fill-rule="evenodd" clip-rule="evenodd" d="M28.1247 23.8626C28.1026 23.8851 28.0787 23.9076 28.0528 23.9301C28.0226 23.9086 27.9809 23.8935 27.9615 23.8626C27.9248 23.7929 27.8199 23.7001 27.9414 23.6455C28.0434 23.5966 28.0434 23.7267 28.0765 23.79C28.0902 23.8166 28.1074 23.8389 28.1247 23.8626Z" fill="#29AA59"/>
<path fill-rule="evenodd" clip-rule="evenodd" d="M20.5167 21.0522C20.6216 21.0932 20.5663 21.1809 20.5677 21.2463C20.5734 21.3362 20.6051 21.3663 20.6892 21.3347C20.5138 21.5043 20.5361 21.2779 20.4685 21.2276C20.4865 21.168 20.5001 21.1097 20.5167 21.0522Z" fill="#DDF1E4"/>
<path fill-rule="evenodd" clip-rule="evenodd" d="M20.1681 21.1672V20.9358C20.2673 20.9674 20.2702 21.0371 20.2601 21.1133L20.1681 21.1672Z" fill="#6FC690"/>
<path fill-rule="evenodd" clip-rule="evenodd" d="M18.377 20.9299C18.387 20.825 18.3367 20.6884 18.5157 20.6999C18.6465 20.7078 18.7414 20.7603 18.7485 20.9098C18.7557 21.0708 18.6616 21.1362 18.5128 21.147C18.3238 21.1621 18.4007 21.0133 18.377 20.9299Z" fill="#F5FBF7"/>
<path fill-rule="evenodd" clip-rule="evenodd" d="M26.6656 22.5112C26.7403 22.5521 26.8546 22.56 26.879 22.6707C26.8913 22.7282 26.8417 22.7663 26.7906 22.7498C26.6958 22.721 26.57 22.7196 26.557 22.5859C26.5534 22.5471 26.5951 22.4982 26.6656 22.5112Z" fill="#EFF8F3"/>
<path fill-rule="evenodd" clip-rule="evenodd" d="M24.3347 21.6273C24.3153 21.702 24.2628 21.7279 24.2024 21.7056C24.1212 21.6761 23.9904 21.7085 23.9889 21.5662C23.9861 21.4921 24.0364 21.4699 24.1039 21.4921C24.1931 21.5209 24.3009 21.5173 24.3347 21.6273Z" fill="#DEF2E5"/>
<path fill-rule="evenodd" clip-rule="evenodd" d="M17.6201 20.7424C17.6906 20.7511 17.802 20.7137 17.7948 20.8337C17.7876 20.9387 17.6812 20.9221 17.605 20.9236C17.5439 20.9257 17.4563 20.9573 17.4505 20.8474C17.4462 20.7166 17.5483 20.7575 17.6201 20.7424Z" fill="#F3FAF5"/>
<path fill-rule="evenodd" clip-rule="evenodd" d="M16.7109 20.8423C16.841 20.8509 16.9057 20.9285 16.9107 21.0507C16.9179 21.16 16.864 21.2534 16.7519 21.2635C16.6225 21.2757 16.5643 21.1772 16.5571 21.0572C16.5499 20.9465 16.593 20.866 16.7109 20.8423Z" fill="#F3FAF6"/>
<path fill-rule="evenodd" clip-rule="evenodd" d="M29.9467 24.7214C29.928 24.8407 29.8561 24.9248 29.7174 24.9248C29.606 24.9234 29.5643 24.8422 29.5758 24.7437C29.5866 24.61 29.6664 24.5238 29.8022 24.5259C29.9093 24.5288 29.951 24.6057 29.9467 24.7214Z" fill="#F9FCFA"/>
<path fill-rule="evenodd" clip-rule="evenodd" d="M23.2013 21.2376C23.2738 21.2821 23.4198 21.2361 23.4406 21.3799C23.4471 21.4345 23.3867 21.4625 23.3385 21.4518C23.2444 21.4309 23.1128 21.4647 23.1013 21.313C23.0992 21.2663 23.12 21.216 23.2013 21.2376Z" fill="#E7F5EC"/>
<path fill-rule="evenodd" clip-rule="evenodd" d="M25.1706 22.0203C25.157 22.1446 25.0959 22.2316 24.9701 22.2316C24.8465 22.233 24.8026 22.1468 24.8084 22.0332C24.8184 21.9081 24.8896 21.8248 25.011 21.8197C25.1318 21.8154 25.1706 21.9117 25.1706 22.0203Z" fill="#F5FBF7"/>
</svg>
