<svg width="538" height="152" viewBox="0 0 538 152" fill="none" xmlns="http://www.w3.org/2000/svg">
<path d="M207.409 39.2C207.532 37.85 207.205 36.7932 206.427 36.0295C205.65 35.2523 204.341 34.8636 202.5 34.8636C201.327 34.8636 200.345 35 199.555 35.2727C198.777 35.5455 198.17 35.9205 197.734 36.3977C197.311 36.875 197.045 37.4273 196.936 38.0545C196.814 38.5455 196.82 38.9955 196.957 39.4045C197.107 39.8 197.386 40.1614 197.795 40.4886C198.218 40.8159 198.77 41.1091 199.452 41.3682C200.148 41.6273 200.973 41.8591 201.927 42.0636L205.2 42.8C207.436 43.2909 209.311 43.9386 210.825 44.7432C212.352 45.5341 213.552 46.475 214.425 47.5659C215.298 48.6568 215.87 49.8773 216.143 51.2273C216.43 52.5773 216.436 54.05 216.164 55.6455C215.7 58.4 214.63 60.7318 212.952 62.6409C211.275 64.55 209.086 66.0023 206.386 66.9977C203.686 67.9932 200.564 68.4909 197.018 68.4909C193.391 68.4909 190.309 67.9523 187.773 66.875C185.25 65.7841 183.423 64.1205 182.291 61.8841C181.173 59.6341 180.9 56.7636 181.473 53.2727H192.273C192.109 54.5545 192.245 55.6318 192.682 56.5045C193.118 57.3773 193.82 58.0386 194.789 58.4886C195.757 58.9386 196.964 59.1636 198.409 59.1636C199.636 59.1636 200.686 59.0136 201.559 58.7136C202.432 58.4136 203.12 57.9977 203.625 57.4659C204.13 56.9341 204.436 56.3273 204.545 55.6455C204.655 55.0182 204.545 54.4591 204.218 53.9682C203.891 53.4773 203.298 53.0341 202.439 52.6386C201.58 52.2432 200.4 51.8818 198.9 51.5545L194.891 50.6545C191.332 49.8364 188.645 48.4864 186.832 46.6045C185.018 44.7227 184.377 42.1455 184.909 38.8727C185.345 36.2 186.443 33.8682 188.202 31.8773C189.975 29.8727 192.225 28.3182 194.952 27.2136C197.693 26.0955 200.727 25.5364 204.055 25.5364C207.436 25.5364 210.266 26.1023 212.543 27.2341C214.834 28.3659 216.477 29.9545 217.473 32C218.482 34.0455 218.755 36.4455 218.291 39.2H207.409ZM218.444 68L225.399 26.1091H255.59L254.035 35.2727H235.217L234.072 42.4727H251.335L249.781 51.6364H232.517L231.372 58.8364H250.108L248.553 68H218.444ZM254.276 68L261.23 26.1091H272.603L267.203 58.8364H284.139L282.585 68H254.276ZM287.182 68L294.136 26.1091H324.327L322.773 35.2727H303.955L302.809 42.4727H320.073L318.518 51.6364H301.255L300.109 58.8364H318.845L317.291 68H287.182ZM327.268 35.2727L328.822 26.1091H365.231L363.677 35.2727H351.077L345.677 68H334.468L339.868 35.2727H327.268ZM404.524 47.7909C403.761 52.3455 402.247 56.1636 399.984 59.2455C397.72 62.3273 394.972 64.6523 391.74 66.2205C388.509 67.7886 385.052 68.5727 381.37 68.5727C377.443 68.5727 374.034 67.7205 371.143 66.0159C368.252 64.3114 366.145 61.8159 364.822 58.5295C363.499 55.2432 363.234 51.2273 364.024 46.4818C364.761 41.9273 366.261 38.0955 368.524 34.9864C370.788 31.8773 373.549 29.525 376.809 27.9295C380.068 26.3341 383.552 25.5364 387.261 25.5364C391.161 25.5364 394.549 26.3955 397.427 28.1136C400.318 29.8318 402.418 32.3477 403.727 35.6614C405.049 38.975 405.315 43.0182 404.524 47.7909ZM393.07 46.4818C393.452 44.0818 393.479 42.0636 393.152 40.4273C392.824 38.7773 392.136 37.5364 391.086 36.7045C390.036 35.8591 388.624 35.4364 386.852 35.4364C384.834 35.4364 383.047 35.9273 381.493 36.9091C379.938 37.8909 378.649 39.3023 377.627 41.1432C376.604 42.9841 375.888 45.2 375.479 47.7909C375.043 50.2182 375.002 52.2364 375.356 53.8455C375.724 55.4545 376.447 56.6614 377.524 57.4659C378.615 58.2705 380.034 58.6727 381.779 58.6727C383.77 58.6727 385.529 58.1955 387.056 57.2409C388.597 56.2864 389.872 54.9023 390.881 53.0886C391.904 51.275 392.634 49.0727 393.07 46.4818ZM406.432 68L413.386 26.1091H431.468C434.577 26.1091 437.202 26.675 439.343 27.8068C441.484 28.9386 443.025 30.5682 443.966 32.6955C444.907 34.8227 445.132 37.3727 444.641 40.3455C444.15 43.3455 443.066 45.875 441.389 47.9341C439.725 49.9795 437.605 51.5341 435.027 52.5977C432.464 53.6477 429.586 54.1727 426.395 54.1727H415.595L417.068 45.3364H425.577C426.914 45.3364 428.086 45.1727 429.095 44.8455C430.105 44.5045 430.923 43.9727 431.55 43.25C432.177 42.5136 432.586 41.5455 432.777 40.3455C432.968 39.1455 432.873 38.1705 432.491 37.4205C432.109 36.6568 431.475 36.0977 430.589 35.7432C429.702 35.375 428.605 35.1909 427.295 35.1909H423.286L417.805 68H406.432ZM434.168 48.7727L441.45 68H429.095L422.059 48.7727H434.168Z" fill="#A3FD5C"/>
<path d="M237.457 138L244.411 96.1091H262.493C265.602 96.1091 268.227 96.675 270.368 97.8068C272.509 98.9386 274.05 100.568 274.991 102.695C275.932 104.823 276.157 107.373 275.666 110.345C275.175 113.345 274.091 115.875 272.414 117.934C270.75 119.98 268.63 121.534 266.052 122.598C263.489 123.648 260.611 124.173 257.42 124.173H246.62L248.093 115.336H256.602C257.939 115.336 259.111 115.173 260.12 114.845C261.13 114.505 261.948 113.973 262.575 113.25C263.202 112.514 263.611 111.545 263.802 110.345C263.993 109.145 263.898 108.17 263.516 107.42C263.134 106.657 262.5 106.098 261.614 105.743C260.727 105.375 259.63 105.191 258.32 105.191H254.311L248.83 138H237.457ZM265.193 118.773L272.475 138H260.12L253.084 118.773H265.193ZM287.376 138H275.103L295.885 96.1091H311.431L318.303 138H306.031L301.94 107.645H301.613L287.376 138ZM287.867 121.473H310.94L309.467 129.982H286.394L287.867 121.473ZM322.338 138L329.293 96.1091H347.456C350.647 96.1091 353.259 96.5386 355.29 97.3977C357.336 98.2568 358.781 99.4705 359.627 101.039C360.486 102.607 360.738 104.455 360.384 106.582C360.111 108.109 359.524 109.507 358.624 110.775C357.738 112.03 356.613 113.093 355.249 113.966C353.899 114.825 352.393 115.418 350.729 115.745L350.647 116.155C352.447 116.209 354.015 116.659 355.352 117.505C356.688 118.336 357.67 119.495 358.297 120.982C358.924 122.455 359.074 124.173 358.747 126.136C358.365 128.427 357.431 130.466 355.945 132.252C354.459 134.039 352.529 135.443 350.156 136.466C347.784 137.489 345.084 138 342.056 138H322.338ZM335.265 128.918H340.584C342.465 128.918 343.945 128.557 345.022 127.834C346.113 127.111 346.761 126.055 346.965 124.664C347.129 123.682 347.047 122.85 346.72 122.168C346.393 121.486 345.84 120.968 345.063 120.614C344.286 120.259 343.311 120.082 342.138 120.082H336.656L335.265 128.918ZM337.884 113.045H342.547C343.529 113.045 344.429 112.889 345.247 112.575C346.065 112.261 346.74 111.805 347.272 111.205C347.804 110.605 348.138 109.882 348.274 109.036C348.479 107.727 348.165 106.732 347.334 106.05C346.515 105.368 345.411 105.027 344.02 105.027H339.193L337.884 113.045ZM371.695 138H359.422L380.204 96.1091H395.749L402.622 138H390.349L386.259 107.645H385.931L371.695 138ZM372.186 121.473H395.259L393.786 129.982H370.713L372.186 121.473ZM423.02 138H406.657L413.611 96.1091H429.32C433.63 96.1091 437.23 96.975 440.12 98.7068C443.011 100.439 445.064 102.914 446.277 106.132C447.491 109.35 447.73 113.182 446.993 117.627C446.284 121.909 444.845 125.57 442.677 128.611C440.523 131.652 437.768 133.977 434.414 135.586C431.073 137.195 427.275 138 423.02 138ZM419.625 128.345H423.757C425.83 128.345 427.677 127.984 429.3 127.261C430.936 126.525 432.3 125.298 433.391 123.58C434.495 121.848 435.293 119.482 435.784 116.482C436.248 113.645 436.234 111.457 435.743 109.916C435.252 108.361 434.318 107.284 432.941 106.684C431.564 106.07 429.784 105.764 427.602 105.764H423.389L419.625 128.345ZM492.837 117.791C492.073 122.345 490.56 126.164 488.296 129.245C486.032 132.327 483.285 134.652 480.053 136.22C476.821 137.789 473.364 138.573 469.682 138.573C465.755 138.573 462.346 137.72 459.455 136.016C456.564 134.311 454.457 131.816 453.135 128.53C451.812 125.243 451.546 121.227 452.337 116.482C453.073 111.927 454.573 108.095 456.837 104.986C459.101 101.877 461.862 99.525 465.121 97.9295C468.38 96.3341 471.864 95.5364 475.573 95.5364C479.473 95.5364 482.862 96.3955 485.739 98.1136C488.63 99.8318 490.73 102.348 492.039 105.661C493.362 108.975 493.628 113.018 492.837 117.791ZM481.382 116.482C481.764 114.082 481.791 112.064 481.464 110.427C481.137 108.777 480.448 107.536 479.398 106.705C478.348 105.859 476.937 105.436 475.164 105.436C473.146 105.436 471.36 105.927 469.805 106.909C468.251 107.891 466.962 109.302 465.939 111.143C464.916 112.984 464.201 115.2 463.791 117.791C463.355 120.218 463.314 122.236 463.669 123.845C464.037 125.455 464.76 126.661 465.837 127.466C466.928 128.27 468.346 128.673 470.091 128.673C472.082 128.673 473.841 128.195 475.369 127.241C476.91 126.286 478.185 124.902 479.194 123.089C480.216 121.275 480.946 119.073 481.382 116.482ZM537.944 96.1091L530.99 138H521.499L510.044 115.991H509.799L506.117 138H494.744L501.699 96.1091H511.353L522.644 118.036H522.972L526.572 96.1091H537.944Z" fill="white"/>
<path d="M90.654 134.682C73.3635 149.387 48.9609 153.243 33.5625 151.675C14.3145 149.714 3.22247 137.623 0.286331 133.048C-2.06258 129.388 10.6172 126.295 17.2507 125.206C22.1442 123.245 32.4533 119.062 34.5412 118.017C37.1511 116.71 28.9952 115.729 39.1086 111.808C40.5223 111.59 43.3496 110.043 43.3496 105.599C43.3496 101.155 44.8721 98.7368 45.6333 98.0832C46.5033 100.48 49.6134 105.795 55.0942 107.887C55.4204 104.51 56.9211 97.4296 60.314 96.1225C64.3376 100.806 73.1677 110.043 76.2996 109.52C76.9521 109.956 78.0613 107.494 77.2783 94.1619C79.0182 95.469 83.6073 98.0832 88.0441 98.0832C93.5902 98.0832 91.959 90.5673 94.5689 84.0318C95.6563 85.3389 98.81 87.8224 102.725 87.2996C106.64 86.7767 108.271 79.2391 108.597 75.5356C109.685 76.5159 112.186 78.4112 113.491 78.1498C114.796 77.8884 116.427 73.466 117.079 71.2875C117.623 69.5447 117.862 65.5362 114.469 63.4448C111.076 61.3535 107.836 71.941 106.64 77.4962C104.573 75.5356 100.506 70.1764 100.767 64.4252C98.4837 65.4055 93.7207 67.889 92.9377 69.9804C91.959 72.5946 90.654 75.5356 90.654 78.1498C90.654 80.764 77.2783 69.6536 77.9308 61.4842C77.2783 60.9395 75.6471 60.7653 74.3422 64.4252C72.711 69 70.7536 76.8427 71.406 81.4176C67.9262 80.3283 60.836 75.7316 60.314 66.059L48.5694 76.5159L47.917 69.9804L53.1368 63.4448C52.3755 62.0288 52.0928 58.0857 57.0516 53.6415C62.0104 49.1973 64.3376 39.1544 64.8813 34.6884C65.7513 26.7368 71.0146 9.85336 85.108 5.93203C89.2403 4.0803 97.9617 0.311466 99.7887 0.0500439C102.072 -0.276733 105.661 1.03038 106.64 2.99104L115.774 9.85336C119.037 12.4676 125.366 20.0488 124.583 29.46C130.346 25.5387 144.418 19.3952 154.597 26.1922C158.838 28.8064 167.255 35.2766 166.994 40.2436C166.733 45.2107 164.057 40.5704 162.752 37.6294C158.403 33.817 147.941 28.7411 140.895 38.9365C132.086 51.6808 129.476 50.7005 120.015 51.6808C117.732 50.9184 112.708 48.5438 110.881 45.1453C110.772 47.9774 111.337 54.1643 114.469 56.2557C115.883 56.2557 118.841 57.4321 119.363 62.1377C121.973 63.3359 127.323 66.5819 127.845 69.9804C129.585 69.8714 133.587 69.9804 135.675 71.2875C137.763 72.5946 137.85 74.6642 137.632 75.5356C137.958 76.407 139.981 77.627 145.462 75.5356C150.943 73.4442 153.835 77.0605 154.597 79.1301C154.705 79.8926 155.64 81.8097 158.511 83.3782C161.382 84.9468 174.714 92.528 181.022 96.1225C191.57 102.222 206.338 117.036 181.022 127.493C163.192 134.858 141.295 130.012 125.156 123.572C118.44 123.354 102.138 125.271 90.654 134.682Z" fill="#A3FD5C"/>
</svg>
