<svg width="33" height="33" viewBox="0 0 33 33" fill="none" xmlns="http://www.w3.org/2000/svg">
<path d="M15.3415 27.0378C12.4154 29.5531 8.28569 30.2127 5.67981 29.9444C2.42246 29.609 0.54534 27.5408 0.048456 26.7583C-0.349051 26.1322 1.79675 25.6031 2.91934 25.4168C3.74748 25.0814 5.4921 24.3659 5.84544 24.1871C6.28712 23.9635 4.90688 23.7958 6.61837 23.125C6.85761 23.0878 7.33609 22.8232 7.33609 22.063C7.33609 21.3028 7.59374 20.8892 7.72256 20.7774C7.86978 21.1873 8.39611 22.0965 9.32363 22.4543C9.37884 21.8767 9.6328 20.6656 10.207 20.442C10.8879 21.2432 12.3822 22.8232 12.9122 22.7338C13.0227 22.8083 13.2104 22.3872 13.0779 20.1066C13.3723 20.3302 14.1489 20.7774 14.8998 20.7774C15.8383 20.7774 15.5623 19.4918 16.004 18.3739C16.188 18.5974 16.7217 19.0223 17.3842 18.9328C18.0467 18.8434 18.3228 17.554 18.378 16.9206C18.562 17.0882 18.9853 17.4124 19.2061 17.3677C19.4269 17.323 19.703 16.5666 19.8134 16.1939C19.9054 15.8958 19.9459 15.2101 19.3717 14.8524C18.7976 14.4947 18.2491 16.3057 18.0467 17.2559C17.6971 16.9206 17.0088 16.0039 17.0529 15.0201C16.6665 15.1878 15.8604 15.6126 15.7279 15.9703C15.5623 16.4175 15.3415 16.9206 15.3415 17.3677C15.3415 17.8149 13.0779 15.9144 13.1883 14.517C13.0779 14.4239 12.8018 14.3941 12.581 15.0201C12.3049 15.8026 11.9737 17.1441 12.0841 17.9267C11.4952 17.7404 10.2953 16.9541 10.207 15.2996L8.21944 17.0882L8.10902 15.9703L8.99237 14.8524C8.86355 14.6102 8.8157 13.9357 9.65489 13.1755C10.4941 12.4153 10.8879 10.6975 10.9799 9.93355C11.1271 8.57341 12.0178 5.68544 14.4029 5.01469C15.1022 4.69795 16.5781 4.05328 16.8873 4.00856C17.2738 3.95266 17.8811 4.17625 18.0467 4.51163L19.5926 5.68544C20.1447 6.13261 21.2157 7.4294 21.0832 9.03921C22.0586 8.36846 24.44 7.31761 26.1625 8.48025C26.8802 8.92742 28.3046 10.0342 28.2604 10.8838C28.2163 11.7334 27.7636 10.9397 27.5427 10.4366C26.8066 9.78449 25.0362 8.91624 23.8437 10.6602C22.353 12.8401 21.9114 12.6725 20.3103 12.8401C19.9238 12.7097 19.0736 12.3035 18.7644 11.7222C18.746 12.2067 18.8417 13.265 19.3717 13.6227C19.611 13.6227 20.1115 13.8239 20.1999 14.6288C20.6416 14.8338 21.547 15.389 21.6353 15.9703C21.9298 15.9517 22.607 15.9703 22.9603 16.1939C23.3137 16.4175 23.3284 16.7715 23.2916 16.9206C23.3468 17.0696 23.6891 17.2783 24.6166 16.9206C25.5441 16.5628 26.0337 17.1814 26.1625 17.5354C26.1809 17.6658 26.3392 17.9938 26.825 18.2621C27.3108 18.5304 29.5671 19.8272 30.6344 20.442C32.4196 21.4854 34.9187 24.0194 30.6344 25.808C27.6171 27.0678 23.9115 26.2389 21.1802 25.1373C20.0437 25.1 17.2848 25.4279 15.3415 27.0378Z" fill="#A3FD5C"/>
</svg>
