<svg width="43" height="43" viewBox="0 0 43 43" fill="none" xmlns="http://www.w3.org/2000/svg">
<rect width="43" height="43" fill="#666666"/>
<path d="M18.2679 25.6895V25.2315C18.2679 24.182 18.3506 23.3456 18.516 22.7222C18.6814 22.0988 18.9263 21.5995 19.2507 21.2242C19.5751 20.8426 19.9726 20.4991 20.4433 20.1938C20.8504 19.9266 21.213 19.669 21.531 19.4209C21.8554 19.1728 22.1099 18.9089 22.2943 18.629C22.4852 18.3491 22.5806 18.0311 22.5806 17.6749C22.5806 17.3568 22.5042 17.077 22.3516 16.8352C22.1989 16.5935 21.9922 16.4059 21.7314 16.2723C21.4706 16.1387 21.1812 16.0719 20.8631 16.0719C20.5197 16.0719 20.2016 16.1514 19.909 16.3105C19.6228 16.4695 19.3906 16.6889 19.2125 16.9688C19.0408 17.2487 18.9549 17.5731 18.9549 17.942H14.0698C14.0825 16.5426 14.4005 15.4072 15.0239 14.5358C15.6473 13.658 16.4742 13.0156 17.5046 12.6085C18.5351 12.195 19.6673 11.9883 20.9013 11.9883C22.2625 11.9883 23.4774 12.1886 24.5461 12.5894C25.6147 12.9838 26.4575 13.5817 27.0745 14.3831C27.6915 15.1782 28 16.1737 28 17.3696C28 18.1392 27.8664 18.8166 27.5993 19.4018C27.3385 19.9807 26.9727 20.4927 26.502 20.938C26.0377 21.3769 25.4938 21.7776 24.8705 22.1402C24.4125 22.4073 24.0277 22.684 23.716 22.9703C23.4043 23.2501 23.1689 23.5714 23.0099 23.9339C22.8509 24.2901 22.7714 24.7227 22.7714 25.2315V25.6895H18.2679ZM20.596 32.1013C19.8581 32.1013 19.2252 31.8436 18.6973 31.3284C18.1757 30.8068 17.9181 30.1739 17.9244 29.4297C17.9181 28.7046 18.1757 28.0844 18.6973 27.5692C19.2252 27.0539 19.8581 26.7963 20.596 26.7963C21.2957 26.7963 21.9127 27.0539 22.447 27.5692C22.9877 28.0844 23.2612 28.7046 23.2675 29.4297C23.2612 29.9258 23.1308 30.3775 22.8763 30.7846C22.6283 31.1853 22.3039 31.5065 21.9031 31.7482C21.5024 31.9836 21.0667 32.1013 20.596 32.1013Z" fill="#8C8C8C"/>
</svg>
